<svg id="Ebene_1" data-name="Ebene 1" xmlns="http://www.w3.org/2000/svg" xmlns:xlink="http://www.w3.org/1999/xlink" viewBox="0 0 371.92 190.07"><defs><style>.cls-1{fill:url(#Unbenannter_Verlauf_5);}.cls-2{fill:url(#Unbenannter_Verlauf_5-2);}.cls-3{fill:url(#Unbenannter_Verlauf_5-3);}.cls-4{fill:url(#Unbenannter_Verlauf_5-4);}.cls-5{fill:url(#Unbenannter_Verlauf_5-5);}.cls-6{fill:url(#Unbenannter_Verlauf_5-6);}.cls-7{fill:url(#Unbenannter_Verlauf_5-7);}.cls-8{fill:url(#Unbenannter_Verlauf_5-8);}.cls-9{fill:url(#Unbenannter_Verlauf_5-9);}.cls-10{fill:url(#Unbenannter_Verlauf_5-10);}.cls-11{fill:url(#Unbenannter_Verlauf_5-11);}.cls-12{fill:url(#Unbenannter_Verlauf_5-12);}.cls-13{fill:url(#Unbenannter_Verlauf_5-13);}.cls-14{fill:url(#Unbenannter_Verlauf_5-14);}</style><linearGradient id="Unbenannter_Verlauf_5" x1="137.55" y1="94.75" x2="230.55" y2="1.74" gradientUnits="userSpaceOnUse"><stop offset="0" stop-color="#ff8200"/><stop offset="1" stop-color="#ff2473"/></linearGradient><linearGradient id="Unbenannter_Verlauf_5-2" x1="135.97" y1="93.17" x2="228.97" y2="0.16" xlink:href="#Unbenannter_Verlauf_5"/><linearGradient id="Unbenannter_Verlauf_5-3" x1="127.18" y1="84.38" x2="220.18" y2="-8.63" xlink:href="#Unbenannter_Verlauf_5"/><linearGradient id="Unbenannter_Verlauf_5-4" x1="126.78" y1="83.98" x2="219.78" y2="-9.03" xlink:href="#Unbenannter_Verlauf_5"/><linearGradient id="Unbenannter_Verlauf_5-5" x1="148.94" y1="106.14" x2="241.94" y2="13.13" xlink:href="#Unbenannter_Verlauf_5"/><linearGradient id="Unbenannter_Verlauf_5-6" x1="149.53" y1="106.73" x2="242.54" y2="13.73" xlink:href="#Unbenannter_Verlauf_5"/><linearGradient id="Unbenannter_Verlauf_5-7" x1="166.1" y1="123.29" x2="259.1" y2="30.29" xlink:href="#Unbenannter_Verlauf_5"/><linearGradient id="Unbenannter_Verlauf_5-8" x1="192.31" y1="149.51" x2="285.32" y2="56.51" xlink:href="#Unbenannter_Verlauf_5"/><linearGradient id="Unbenannter_Verlauf_5-9" x1="191.96" y1="149.16" x2="284.97" y2="56.16" xlink:href="#Unbenannter_Verlauf_5"/><linearGradient id="Unbenannter_Verlauf_5-10" x1="171.44" y1="128.64" x2="264.45" y2="35.63" xlink:href="#Unbenannter_Verlauf_5"/><linearGradient id="Unbenannter_Verlauf_5-11" x1="140.5" y1="97.7" x2="233.5" y2="4.69" xlink:href="#Unbenannter_Verlauf_5"/><linearGradient id="Unbenannter_Verlauf_5-12" x1="117.41" y1="74.61" x2="210.42" y2="-18.39" xlink:href="#Unbenannter_Verlauf_5"/><linearGradient id="Unbenannter_Verlauf_5-13" x1="135.67" y1="92.87" x2="228.68" y2="-0.13" xlink:href="#Unbenannter_Verlauf_5"/><linearGradient id="Unbenannter_Verlauf_5-14" x1="123.42" y1="80.62" x2="216.43" y2="-12.38" xlink:href="#Unbenannter_Verlauf_5"/></defs><title>1</title><path d="M2.79,189.31a3.94,3.94,0,0,1-2.28-3A40.48,40.48,0,0,1,0,178.51a40.36,40.36,0,0,1,.51-7.81,4,4,0,0,1,2.28-3A17.6,17.6,0,0,1,9,167a17.56,17.56,0,0,1,6.17.75,4,4,0,0,1,2.29,3,41.44,41.44,0,0,1,.5,7.81,41.56,41.56,0,0,1-.5,7.82,3.93,3.93,0,0,1-2.29,3,17.27,17.27,0,0,1-6.17.76A17.31,17.31,0,0,1,2.79,189.31Zm11.57-.87a3.19,3.19,0,0,0,1.91-2.52,38.78,38.78,0,0,0,.47-7.41,38.66,38.66,0,0,0-.47-7.4,3.2,3.2,0,0,0-1.91-2.53,18.75,18.75,0,0,0-5.4-.51,18.75,18.75,0,0,0-5.4.51,3.19,3.19,0,0,0-1.9,2.53,37.59,37.59,0,0,0-.48,7.4,37.71,37.71,0,0,0,.48,7.41,3.19,3.19,0,0,0,1.9,2.52A18.75,18.75,0,0,0,9,189,18.75,18.75,0,0,0,14.36,188.44Z"/><path d="M24,167.22h9.45a7.5,7.5,0,0,1,4.11.9,3.86,3.86,0,0,1,1.69,2.28,15.43,15.43,0,0,1,.34,3.61,14.8,14.8,0,0,1-.36,3.6,3.9,3.9,0,0,1-1.71,2.3,7.37,7.37,0,0,1-4.07.9H25.18v9H24Zm9.39,12.47A6.51,6.51,0,0,0,36.7,179a3,3,0,0,0,1.4-1.82,12.92,12.92,0,0,0,.31-3.21,14.06,14.06,0,0,0-.28-3.21A2.86,2.86,0,0,0,36.77,169a6.7,6.7,0,0,0-3.38-.65H25.18v11.35Z"/><path d="M44.84,189.81V167.22h14v1.12H46v9.48H57.29v1.12H46v9.75h12.8v1.12Z"/><path d="M79.35,189.81,65.1,169.39H65v20.42H63.82V167.22H65l14.25,20.42h.13V167.22H80.5v22.59Z"/><path d="M92.64,189.81V167.22h5.71v22.59Z"/><path d="M115.79,189.81,108,176.9h-.16v12.91h-5.45V167.22h5.88l7.25,11.72h.17V167.22h5.48v22.59Z"/><path d="M129.58,189.81V172.08h-6.24v-4.86h18.22v4.86h-6.27v17.73Z"/><path d="M143.79,189.81V167.22h16v4.63H149.5v4.23h8.73v4.63H149.5v4.47h10.31v4.63Z"/><path d="M172.25,180.94v-4.33h8.44v12.7c-1.14.22-2.45.4-3.92.54s-2.78.22-3.89.22a17.42,17.42,0,0,1-6.47-.9,5.16,5.16,0,0,1-2.89-3.29,25.06,25.06,0,0,1-.79-7.37,23.47,23.47,0,0,1,.81-7.07,5.6,5.6,0,0,1,2.93-3.45,15.22,15.22,0,0,1,6.37-1,38.9,38.9,0,0,1,4.83.29,24.83,24.83,0,0,1,2.92.46V172a50,50,0,0,0-5.65-.45,18.84,18.84,0,0,0-4.44.34,2.29,2.29,0,0,0-1.6,1.69,20.43,20.43,0,0,0-.39,4.89,24.6,24.6,0,0,0,.3,4.61,2.65,2.65,0,0,0,1.23,1.93,6.61,6.61,0,0,0,3.07.52c.78,0,1.54,0,2.26-.1v-4.53Z"/><path d="M197.27,189.81l-3-7.92h-4v7.92h-5.71V167.22h10.83a10.07,10.07,0,0,1,4.71.87,4.23,4.23,0,0,1,2.1,2.4,13.22,13.22,0,0,1,.51,4.08,12.63,12.63,0,0,1-.6,4.11,4.18,4.18,0,0,1-2.42,2.52l3.48,8.61Zm-1.46-12.64a1.39,1.39,0,0,0,1-.74,5.18,5.18,0,0,0,.23-1.82,6.09,6.09,0,0,0-.2-1.86,1.25,1.25,0,0,0-.94-.74,11.19,11.19,0,0,0-2.51-.19h-3v5.54h3A11.25,11.25,0,0,0,195.81,177.17Z"/><path d="M220.51,189.81l-1.35-4.27h-8l-1.28,4.27h-5.71l7.22-22.59h7.75l7.22,22.59Zm-5.32-17.54H215l-2.6,8.64h5.39Z"/><path d="M231.21,189.81V172.08H225v-4.86h18.22v4.86h-6.27v17.73Z"/><path d="M245.36,189.81V167.22h5.71v22.59Z"/><path d="M257.59,189.07a4.57,4.57,0,0,1-2.53-3.2,36.78,36.78,0,0,1-.51-7.36,36.73,36.73,0,0,1,.51-7.35,4.55,4.55,0,0,1,2.53-3.2q2-1,6.78-1t6.78,1a4.52,4.52,0,0,1,2.51,3.2,37.92,37.92,0,0,1,.49,7.35,38,38,0,0,1-.49,7.36,4.54,4.54,0,0,1-2.51,3.2c-1.35.66-3.61,1-6.78,1S258.94,189.73,257.59,189.07Zm9.64-4a1.94,1.94,0,0,0,.91-1.59,37.74,37.74,0,0,0,.2-5,37.85,37.85,0,0,0-.2-5,1.94,1.94,0,0,0-.91-1.59,7.8,7.8,0,0,0-2.86-.34,8,8,0,0,0-2.89.34,2,2,0,0,0-1,1.63,61.48,61.48,0,0,0,0,9.91,2,2,0,0,0,1,1.62,8,8,0,0,0,2.89.35A7.74,7.74,0,0,0,267.23,185.09Z"/><path d="M291.06,189.81l-7.81-12.91h-.17v12.91h-5.45V167.22h5.88l7.25,11.72h.17V167.22h5.48v22.59Z"/><path d="M325,189.81V178.94H310.66v10.87h-1.18V167.22h1.18v10.6H325v-10.6h1.18v22.59Z"/><path d="M349.36,167.22v12.93a27.85,27.85,0,0,1-.51,6.31,4,4,0,0,1-2.21,2.79,19.46,19.46,0,0,1-11.18,0,4,4,0,0,1-2.23-2.79,27.85,27.85,0,0,1-.51-6.31V167.22h1.18v13.92a20.24,20.24,0,0,0,.43,5,3.2,3.2,0,0,0,1.88,2.17,18.66,18.66,0,0,0,9.69,0,3.16,3.16,0,0,0,1.87-2.17,21.56,21.56,0,0,0,.41-5V167.22Z"/><path d="M355.93,167.22H366c2.1,0,3.56.49,4.4,1.48a6.27,6.27,0,0,1,1.24,4.17q0,4.59-3.84,5.31v.14a4.21,4.21,0,0,1,3.29,1.9,7.7,7.7,0,0,1,.82,3.68,6.73,6.73,0,0,1-1.28,4.26q-1.29,1.65-4.93,1.65h-9.78Zm13.31,9.32a4.74,4.74,0,0,0,1.23-3.48,5.2,5.2,0,0,0-1-3.59c-.69-.76-1.92-1.13-3.7-1.13h-8.63v9.45h8.63A4.71,4.71,0,0,0,369.24,176.54Zm.39,11a5.29,5.29,0,0,0,1.1-3.71,4.22,4.22,0,0,0-4.89-4.89h-8.73v9.78h8.73C367.64,188.69,368.9,188.3,369.63,187.51Z"/><path class="cls-1" d="M225.9,15.23a2.86,2.86,0,0,1,3.29.07,2.73,2.73,0,0,1,.25.23,79.87,79.87,0,0,1,8.14-4.15A20.44,20.44,0,0,0,215.23.4,47.89,47.89,0,0,0,225.9,15.23Z"/><path class="cls-2" d="M187,32.6A51,51,0,0,1,170.37,50a83.36,83.36,0,0,0,16.82,7.38,5.54,5.54,0,0,1,1.42-2,5.71,5.71,0,0,1,5-1.38c5.13-13.39,15-24.56,31.19-35.46a2.87,2.87,0,0,1,.14-2.15A49.08,49.08,0,0,1,213.71.77a20.52,20.52,0,0,0-13.39,27.86h0l.16.56a4.8,4.8,0,0,1-5.84,6l-.56-.14h0A26.58,26.58,0,0,0,187,32.6Z"/><path class="cls-3" d="M168.91,49.14a48.72,48.72,0,0,0,16.47-16.79,26.56,26.56,0,0,0-25,11A87,87,0,0,0,168.91,49.14Z"/><path class="cls-4" d="M159.57,44.55a26.59,26.59,0,0,0-3.63,9.35A41.39,41.39,0,0,0,167.41,50,88.91,88.91,0,0,1,159.57,44.55Z"/><path class="cls-5" d="M230.14,18.68a36.35,36.35,0,0,0,9.37,4.93,21.16,21.16,0,0,0,.25-3.11,20.46,20.46,0,0,0-1.55-7.76,79.77,79.77,0,0,0-8,4.06A2.89,2.89,0,0,1,230.14,18.68Z"/><path class="cls-6" d="M239.23,25.12a38.54,38.54,0,0,1-10-5.25,2.85,2.85,0,0,1-3.44,0,1.3,1.3,0,0,1-.18-.15C209.73,30.45,200,41.38,195,54.43a5.88,5.88,0,0,1,1.75,1.29,5.75,5.75,0,0,1,1.46,4.37c3.6.74,7,1.36,10.1,1.88a26.07,26.07,0,0,0,.22-3.32A26.44,26.44,0,0,0,205.34,46h0l-.16-.56a4.8,4.8,0,0,1,5.84-6l.56.14v0a20.49,20.49,0,0,0,27.66-14.49Z"/><path class="cls-7" d="M191.89,65.31c-.57,2.77-1,5.47-1.27,8a113.92,113.92,0,0,1,32.49,21,2.86,2.86,0,0,1,2.71-.18A74.59,74.59,0,0,1,240.57,81a26.54,26.54,0,0,0-27.22-5.29h0l-.56.2a5.1,5.1,0,0,1-6.45-6.66l.21-.55h0a27,27,0,0,0,1.54-5.26c-3.17-.52-6.58-1.15-10.2-1.9a5.66,5.66,0,0,1-6,3.76Z"/><path class="cls-8" d="M226.1,99.2a2.88,2.88,0,0,1-2.51.2,60.61,60.61,0,0,0-7.4,13.53c-1.51,3.85-2.88,7.83-4.15,11.89a26.5,26.5,0,0,0,30.1-6.32A126.26,126.26,0,0,0,226.1,99.2Z"/><path class="cls-9" d="M227,95.1a2.82,2.82,0,0,1,.16,3,128.38,128.38,0,0,1,16,19.22,26.48,26.48,0,0,0-1.5-35.25A72.77,72.77,0,0,0,227,95.1Z"/><path class="cls-10" d="M214.79,112.38a63,63,0,0,1,7.59-13.87,2.88,2.88,0,0,1-.29-3.11,112.53,112.53,0,0,0-31.64-20.54c-.35,3.52-.49,6.64-.53,9.07.47-.15,1-.29,1.41-.46h0l.56-.19a5.1,5.1,0,0,1,6.45,6.66l-.21.55h0a26.51,26.51,0,0,0,12.53,33.69C211.93,120.15,213.3,116.2,214.79,112.38Z"/><path class="cls-11" d="M189,74.27c-2.92-1.18-5.93-2.26-9.07-3.18-18.56-5.46-33.37-5.27-43.6-3.69a2.85,2.85,0,0,1-.53,1.43A2.88,2.88,0,0,1,133.64,70a57.62,57.62,0,0,0-1,14.19,14.29,14.29,0,0,0,4.16.62,14.66,14.66,0,0,0,13.93-10.08h0l0-.11c0-.16.09-.34.14-.51a4.81,4.81,0,0,1,8.09-2l.4.41h0a26.4,26.4,0,0,0,29,11.84C188.45,81.73,188.59,78.24,189,74.27Z"/><path class="cls-12" d="M130.64,67a2.92,2.92,0,0,1,.55-1.55,2.85,2.85,0,0,1,2.34-1.15,35.94,35.94,0,0,1,4.18-8.75c-.29,0-.57-.05-.85-.05a14.64,14.64,0,0,0-14.64,14A68.5,68.5,0,0,1,130.64,67Z"/><path class="cls-13" d="M135,64.72l.16.1a2.82,2.82,0,0,1,.89,1.11c10.41-1.62,25.45-1.81,44.28,3.72,3,.9,6,1.94,8.81,3.07.3-2.46.7-5.08,1.25-7.76a5.63,5.63,0,0,1-3.63-6.12,84.55,84.55,0,0,1-17.9-8,42.4,42.4,0,0,1-13.19,4.6c-.07.59-.13,1.18-.16,1.77h0l-.15.56a4.81,4.81,0,0,1-8,2.15c-.11-.12-.22-.23-.34-.34l-.15-.16h0a14.69,14.69,0,0,0-7.42-3.75A35.5,35.5,0,0,0,135,64.72Z"/><path class="cls-14" d="M132.13,69.63a2.23,2.23,0,0,1-.33-.2,2.93,2.93,0,0,1-.84-1,66.21,66.21,0,0,0-8.73,2.65,14.68,14.68,0,0,0,8.9,12.54A59.67,59.67,0,0,1,132.13,69.63Z"/></svg>